<?xml version="1.0" encoding="UTF-8" standalone="no"?>
<!DOCTYPE svg PUBLIC "-//W3C//DTD SVG 1.1//EN" "http://www.w3.org/Graphics/SVG/1.1/DTD/svg11.dtd">
<svg xmlns="http://www.w3.org/2000/svg" xml:space="preserve" fill-rule="evenodd" stroke-linejoin="round" stroke-miterlimit="2" clip-rule="evenodd" viewBox="0 0 420 63">
  <g fill="#fff" fill-rule="nonzero">
    <path d="M24.457 47.013H9.239L6.25 62.503H0L13.316 0h7.609L34.24 62.503h-6.522l-3.261-15.49Zm-1.087-5.435-6.522-32.61-6.522 32.61H23.37ZM70.383 62.503l-9.511-26.36h-9.24v26.36H45.11V0h14.947c9.511 0 14.674 4.348 14.674 13.316v9.783c0 6.522-2.717 10.598-7.881 12.229l10.055 27.446h-6.522v-.271ZM51.632 30.436h8.153c5.978 0 8.696-2.446 8.696-8.968v-6.522c0-6.522-2.718-8.967-8.696-8.967h-8.153v24.457ZM113.591 62.503l-11.685-32.339-7.065 12.229v20.11h-6.522V0h6.522v32.067L112.233 0h7.065l-13.316 23.371 14.403 39.132h-6.794ZM130.983 0h6.522v62.503h-6.522zM168.213 62.503h-7.065L148.104 0h6.522l10.054 51.633L174.735 0h6.25l-12.772 62.503ZM208.16 62.503h-7.065L188.051 0h6.522l10.055 51.633L214.682 0h6.251L208.16 62.503ZM232.074 62.503V0h25.273v5.707h-18.751v22.012h16.034v5.706h-16.034v23.099h19.023v5.707h-25.545v.272ZM294.305 62.503l-9.511-26.36h-9.24v26.36h-6.25V0h15.218c9.511 0 14.403 4.348 14.403 13.316v9.783c0 6.522-2.718 10.598-7.881 12.229l10.327 27.446h-7.066v-.271Zm-18.751-32.067h8.425c5.978 0 8.696-2.446 8.696-8.968v-6.522c0-6.522-2.718-8.967-8.696-8.967h-8.425v24.457ZM337.785 62.503 326.1 30.164l-7.066 12.229v20.11h-6.522V0h6.522v32.067L336.698 0h7.066l-13.588 23.371 14.675 39.132h-7.066ZM354.905 62.503V0h25.273v5.707h-18.751v22.012h16.034v5.706h-16.034v23.099h19.023v5.707h-25.545v.272ZM419.038 5.707h-11.413v56.796h-6.522V5.707h-11.414V0h29.078v5.707h.271Z"/>
  </g>
</svg>
